<svg id="Layer_1" data-name="Layer 1" xmlns="http://www.w3.org/2000/svg" viewBox="0 0 200 200"><defs><style>.cls-1{opacity:0.3;}.cls-2{fill:#edb23e;}.cls-3{opacity:0.6;}.cls-4{fill:#fff;}</style></defs><title>icon</title><g class="cls-1"><path class="cls-2" d="M104.55,50.73a49.33,49.33,0,1,1-49.32,49.32,49.38,49.38,0,0,1,49.32-49.32m0-8a57.33,57.33,0,1,0,57.33,57.32,57.32,57.32,0,0,0-57.33-57.32Z"/></g><g class="cls-3"><circle class="cls-2" cx="104.55" cy="100.05" r="40.65"/></g><path class="cls-2" d="M104.55,123.3a23.25,23.25,0,1,1,23.25-23.25A23.28,23.28,0,0,1,104.55,123.3Z"/><path class="cls-4" d="M104.55,80.3A19.75,19.75,0,1,1,84.8,100.05,19.77,19.77,0,0,1,104.55,80.3m0-7a26.75,26.75,0,1,0,26.75,26.75A26.75,26.75,0,0,0,104.55,73.3Z"/></svg>