<svg id="Layer_1" data-name="Layer 1" xmlns="http://www.w3.org/2000/svg" viewBox="0 0 200 200"><defs><style>.cls-1{opacity:0.3;}.cls-2,.cls-6{fill:#fff;}.cls-3{fill:#edb23e;}.cls-4{opacity:0.6;}.cls-5{fill:#ffd961;}.cls-6{stroke:#4c4c4c;stroke-miterlimit:10;stroke-width:8px;}.cls-7{fill:#d8d8d8;}</style></defs><title>icon</title><g class="cls-1"><path class="cls-2" d="M149.37,116A34.14,34.14,0,1,1,183.5,81.87,34.17,34.17,0,0,1,149.37,116Z"/><path class="cls-3" d="M149.36,51.23a30.64,30.64,0,1,1-30.63,30.63,30.67,30.67,0,0,1,30.63-30.63m0-7A37.64,37.64,0,1,0,187,81.86a37.63,37.63,0,0,0-37.64-37.63Z"/></g><g class="cls-4"><circle class="cls-3" cx="149.36" cy="81.86" r="26.69"/></g><circle class="cls-5" cx="149.37" cy="81.87" r="16.06"/><path class="cls-2" d="M149.36,67.3A14.57,14.57,0,1,1,134.8,81.86,14.59,14.59,0,0,1,149.36,67.3m0-3a17.57,17.57,0,1,0,17.57,17.56A17.57,17.57,0,0,0,149.36,64.3Z"/><path class="cls-6" d="M148.87,96a27.81,27.81,0,0,0-34.7-16.78A36.36,36.36,0,0,0,49.54,95,31.11,31.11,0,0,0,19,126h0a31.12,31.12,0,0,0,31,31H141a31.12,31.12,0,0,0,31-31h0A31.13,31.13,0,0,0,148.87,96Z"/><path class="cls-7" d="M134.06,105.65c-.42,0-.82,0-1.23.07a19.57,19.57,0,0,0-18.35-12.58A19.78,19.78,0,0,0,107,94.59a24.05,24.05,0,0,0-21.44-13,23.79,23.79,0,0,0-24,23.59c0,.47,0,.93,0,1.38a20,20,0,0,0-5.92-.9,19.26,19.26,0,1,0,0,38.52l.5,0,.47,0h74.43c.44,0,.86,0,1.28-.07s1.1.07,1.66.07a19.26,19.26,0,1,0,0-38.52Z"/><path class="cls-7" d="M117.34,93.17a19.33,19.33,0,0,0-2.65-.19,19.88,19.88,0,0,0-7.47,1.45,24.09,24.09,0,0,0-21.49-13A23.85,23.85,0,0,0,61.68,105c0,.47,0,.93,0,1.39a20,20,0,0,0-5.93-.9,19.3,19.3,0,1,0,0,38.6l.51,0,.47,0H87.91Z"/></svg>