<svg id="Layer_1" data-name="Layer 1" xmlns="http://www.w3.org/2000/svg" viewBox="0 0 200 200"><defs><style>.cls-1{fill:#605a52;}.cls-2{fill:#b5a995;}.cls-3{fill:#fff;stroke:#4c4c4c;stroke-miterlimit:10;stroke-width:8px;}.cls-4{fill:#d8d8d8;}</style></defs><title>icon</title><path class="cls-1" d="M157.43,51.85a27.08,27.08,0,1,1-27.08,27.08,27.1,27.1,0,0,1,27.08-27.08m0-6A33.08,33.08,0,1,0,190.5,78.93a33.08,33.08,0,0,0-33.07-33.08Z"/><circle class="cls-2" cx="157.43" cy="78.93" r="22.64"/><path class="cls-3" d="M155.87,95a27.81,27.81,0,0,0-34.7-16.78A36.36,36.36,0,0,0,56.54,94,31.11,31.11,0,0,0,26,125h0a31.12,31.12,0,0,0,31,31H148a31.12,31.12,0,0,0,31-31h0A31.13,31.13,0,0,0,155.87,95Z"/><path class="cls-4" d="M141.06,104.65c-.42,0-.82,0-1.23.07a19.57,19.57,0,0,0-18.35-12.58A19.78,19.78,0,0,0,114,93.59a24.05,24.05,0,0,0-21.44-13,23.79,23.79,0,0,0-24,23.59c0,.47,0,.93,0,1.38a20,20,0,0,0-5.92-.9,19.26,19.26,0,1,0,0,38.52l.5,0,.47,0h74.43c.44,0,.86,0,1.28-.07s1.1.07,1.66.07a19.26,19.26,0,1,0,0-38.52Z"/><path class="cls-4" d="M124.34,92.17a19.33,19.33,0,0,0-2.65-.19,19.88,19.88,0,0,0-7.47,1.45,24.09,24.09,0,0,0-21.49-13,23.85,23.85,0,0,0-24,23.64c0,.47,0,.93,0,1.39a20,20,0,0,0-5.93-.9,19.3,19.3,0,1,0,0,38.6l.51,0,.47,0H94.91Z"/></svg>