<svg xmlns="http://www.w3.org/2000/svg" viewBox="0 0 200 200"><defs><style>.cls-1{fill:#605a52;}.cls-2{fill:#b5a995;}.cls-3{fill:#fff;stroke:#4c4c4c;stroke-miterlimit:10;stroke-width:8px;}.cls-4{fill:#d8d8d8;}</style></defs><g id="Layer_1" data-name="Layer 1"><path class="cls-1" d="M151.93,42.35a27.08,27.08,0,1,1-27.08,27.08,27.1,27.1,0,0,1,27.08-27.08m0-6A33.08,33.08,0,1,0,185,69.43a33.08,33.08,0,0,0-33.07-33.08Z"/><circle class="cls-2" cx="151.93" cy="69.43" r="22.64"/></g><g id="Layer_4" data-name="Layer 4"><path class="cls-3" d="M150.37,85.49a27.81,27.81,0,0,0-34.7-16.78A36.36,36.36,0,0,0,51,84.47a31.11,31.11,0,0,0-30.53,31h0a31.12,31.12,0,0,0,31,31h90.93a31.12,31.12,0,0,0,31-31h0A31.13,31.13,0,0,0,150.37,85.49Z"/><path class="cls-4" d="M135.56,95.15c-.42,0-.82,0-1.23.07A19.57,19.57,0,0,0,116,82.64a19.78,19.78,0,0,0-7.45,1.45,24.05,24.05,0,0,0-21.44-13,23.79,23.79,0,0,0-24,23.59c0,.47,0,.93,0,1.38a20,20,0,0,0-5.92-.9,19.26,19.26,0,1,0,0,38.52l.5,0,.47,0h74.43c.44,0,.86,0,1.28-.07s1.1.07,1.66.07a19.26,19.26,0,1,0,0-38.52Z"/><path class="cls-4" d="M118.84,82.67a19.33,19.33,0,0,0-2.65-.19,19.88,19.88,0,0,0-7.47,1.45,24.09,24.09,0,0,0-21.49-13A23.85,23.85,0,0,0,63.18,94.54c0,.47,0,.93,0,1.39a20,20,0,0,0-5.93-.9,19.3,19.3,0,1,0,0,38.6l.51,0,.47,0H89.41Z"/></g></svg>