<svg id="Layer_1" data-name="Layer 1" xmlns="http://www.w3.org/2000/svg" viewBox="0 0 200 200"><defs><style>.cls-1{fill:#fff;stroke:#4c4c4c;stroke-miterlimit:10;stroke-width:8px;}.cls-2{fill:#d8d8d8;}</style></defs><title>icon</title><path class="cls-1" d="M147,98.92A25.08,25.08,0,0,0,115.76,83.8,32.78,32.78,0,0,0,57.51,98,28,28,0,0,0,30,126h0a28,28,0,0,0,28,28h81.95a28,28,0,0,0,28-28h0A28.08,28.08,0,0,0,147,98.92Z"/><path class="cls-2" d="M133.68,107.64c-.37,0-.74,0-1.11,0A17.63,17.63,0,0,0,116,96.36a18,18,0,0,0-6.71,1.3,21.69,21.69,0,0,0-40.95,9.54c0,.42,0,.84,0,1.25a17.68,17.68,0,0,0-5.33-.81,17.36,17.36,0,1,0,0,34.71l.45,0,.43,0H131a10.76,10.76,0,0,0,1.15-.07c.5,0,1,.07,1.5.07a17.36,17.36,0,1,0,0-34.71Z"/></svg>