<svg xmlns="http://www.w3.org/2000/svg" viewBox="0 0 200 200"><defs><style>.cls-1{fill:#fff;stroke:#4c4c4c;stroke-miterlimit:10;stroke-width:8px;}.cls-2{fill:#d8d8d8;}</style></defs><g id="Layer_2" data-name="Layer 2"><path class="cls-1" d="M144.38,90A26,26,0,0,0,112,74.28,34,34,0,0,0,51.54,89,29.09,29.09,0,0,0,23,118h0a29.09,29.09,0,0,0,29,29h85a29.09,29.09,0,0,0,29-29h0A29.11,29.11,0,0,0,144.38,90Z"/><path class="cls-2" d="M130.54,99c-.39,0-.77,0-1.16.06A18.27,18.27,0,0,0,112.23,87.3a18.48,18.48,0,0,0-7,1.36,22.47,22.47,0,0,0-20-12.16,22.24,22.24,0,0,0-22.43,22c0,.43,0,.86,0,1.29A18.69,18.69,0,0,0,57.31,99a18,18,0,1,0,0,36l.47,0,.44,0h69.57a11.9,11.9,0,0,0,1.2-.07c.51,0,1,.07,1.55.07a18,18,0,1,0,0-36Z"/></g></svg>