<svg id="Layer_1" data-name="Layer 1" xmlns="http://www.w3.org/2000/svg" viewBox="0 0 200 200"><defs><style>.cls-1{fill:#fff;stroke:#4c4c4c;stroke-width:8px;}.cls-1,.cls-3{stroke-miterlimit:10;}.cls-2{fill:#d8d8d8;}.cls-3{fill:#999;stroke:#515151;stroke-width:4px;}</style></defs><title>icon</title><path class="cls-1" d="M148.38,88A26,26,0,0,0,116,72.28,34,34,0,0,0,55.54,87,29.09,29.09,0,0,0,27,116h0a29.09,29.09,0,0,0,29,29h85a29.09,29.09,0,0,0,29-29h0A29.11,29.11,0,0,0,148.38,88Z"/><path class="cls-2" d="M134.54,97c-.39,0-.77,0-1.16.06A18.27,18.27,0,0,0,116.23,85.3a18.48,18.48,0,0,0-7,1.36,22.47,22.47,0,0,0-20-12.16,22.24,22.24,0,0,0-22.43,22c0,.43,0,.86,0,1.29A18.69,18.69,0,0,0,61.31,97a18,18,0,1,0,0,36l.47,0,.44,0h69.57a11.9,11.9,0,0,0,1.2-.07c.51,0,1,.07,1.55.07a18,18,0,1,0,0-36Z"/><path class="cls-3" d="M130.23,135c-.26,0-.52,0-.77,0A12.2,12.2,0,0,0,118,127.2a12.33,12.33,0,0,0-4.64.9A15,15,0,0,0,100,120a14.82,14.82,0,0,0-15,14.7c0,.29,0,.58,0,.86a12.54,12.54,0,0,0-3.69-.56,12,12,0,1,0,0,24h47c.27,0,.53,0,.79,0s.69,0,1,0a12,12,0,1,0,0-24Z"/></svg>