<svg xmlns="http://www.w3.org/2000/svg" viewBox="0 0 200 200"><defs><style>.cls-1{fill:#fff;stroke:#4c4c4c;stroke-miterlimit:10;stroke-width:8px;}.cls-2{fill:#d8d8d8;}.cls-3,.cls-4,.cls-5{fill:#6793f4;}.cls-3{opacity:0.7;}.cls-4{opacity:0.5;}.cls-5{opacity:0.9;}</style></defs><g id="Layer_4" data-name="Layer 4"><path class="cls-1" d="M143,125h2.25a31.19,31.19,0,0,0,31.1-31.1h0a31.21,31.21,0,0,0-23.18-30.06A27.9,27.9,0,0,0,118.38,47,36.45,36.45,0,0,0,53.6,62.82,31.18,31.18,0,0,0,23,93.9h0A31.18,31.18,0,0,0,54.1,125H82"/><path class="cls-2" d="M120.34,62.17a19.33,19.33,0,0,0-2.65-.19,19.88,19.88,0,0,0-7.47,1.45,24.09,24.09,0,0,0-21.49-13A23.85,23.85,0,0,0,64.68,74c0,.47,0,.93,0,1.39a20,20,0,0,0-5.93-.9,19.3,19.3,0,1,0,0,38.6l.51,0,.47,0H90.91Z"/><rect class="cls-3" x="87.08" y="118.7" width="55.3" height="8.59" rx="4.3" ry="4.3" transform="translate(278.45 84.47) rotate(119.77)"/><rect class="cls-4" x="83.58" y="104.99" width="44.46" height="8.59" rx="4.3" ry="4.3" transform="translate(253.21 71.7) rotate(119.77)"/><rect class="cls-5" x="112.43" y="111.99" width="44.46" height="8.59" rx="4.3" ry="4.3" transform="translate(302.46 57.13) rotate(119.77)"/></g></svg>