<svg id="Layer_1" data-name="Layer 1" xmlns="http://www.w3.org/2000/svg" viewBox="0 0 200 200"><defs><style>.cls-1{opacity:0.3;}.cls-2,.cls-6{fill:#fff;}.cls-3{fill:#edb23e;}.cls-4{opacity:0.6;}.cls-5{fill:#ffd961;}.cls-6{stroke:#4c4c4c;stroke-miterlimit:10;stroke-width:8px;}.cls-7{fill:#d8d8d8;}.cls-10,.cls-8,.cls-9{fill:#6793f4;}.cls-8{opacity:0.7;}.cls-9{opacity:0.5;}.cls-10{opacity:0.9;}</style></defs><title>icon</title><g class="cls-1"><path class="cls-2" d="M146.37,114A34.14,34.14,0,1,1,180.5,79.86,34.17,34.17,0,0,1,146.37,114Z"/><path class="cls-3" d="M146.36,49.23a30.64,30.64,0,1,1-30.63,30.63,30.67,30.67,0,0,1,30.63-30.63m0-7A37.64,37.64,0,1,0,184,79.86a37.63,37.63,0,0,0-37.64-37.63Z"/></g><g class="cls-4"><circle class="cls-3" cx="146.36" cy="79.86" r="26.69"/></g><path class="cls-5" d="M146.37,95.93a16.07,16.07,0,1,1,16.06-16.07A16.09,16.09,0,0,1,146.37,95.93Z"/><path class="cls-2" d="M146.36,65.3A14.57,14.57,0,1,1,131.8,79.86,14.59,14.59,0,0,1,146.36,65.3m0-3a17.57,17.57,0,1,0,17.57,17.56A17.57,17.57,0,0,0,146.36,62.3Z"/><path class="cls-6" d="M136,155h2.25a31.19,31.19,0,0,0,31.1-31.1h0a31.21,31.21,0,0,0-23.18-30.06A27.9,27.9,0,0,0,111.38,77,36.45,36.45,0,0,0,46.6,92.82,31.18,31.18,0,0,0,16,123.9h0A31.18,31.18,0,0,0,47.1,155H75"/><path class="cls-7" d="M114.34,91.17a19.33,19.33,0,0,0-2.65-.19,19.88,19.88,0,0,0-7.47,1.45,24.09,24.09,0,0,0-21.49-13A23.85,23.85,0,0,0,58.68,103c0,.47,0,.93,0,1.39a20,20,0,0,0-5.93-.9,19.3,19.3,0,1,0,0,38.6l.51,0,.47,0H84.91Z"/><rect class="cls-8" x="80.08" y="147.7" width="55.3" height="8.59" rx="4.3" ry="4.3" transform="translate(293.15 133.94) rotate(119.77)"/><rect class="cls-9" x="76.58" y="133.99" width="44.46" height="8.59" rx="4.3" ry="4.3" transform="translate(267.91 121.17) rotate(119.77)"/><rect class="cls-10" x="105.43" y="140.99" width="44.46" height="8.59" rx="4.3" ry="4.3" transform="translate(317.16 106.61) rotate(119.77)"/></svg>