<svg xmlns="http://www.w3.org/2000/svg" viewBox="0 0 200 200"><defs><style>.cls-1{opacity:0.3;}.cls-2,.cls-6{fill:#fff;}.cls-3{fill:#edb23e;}.cls-4{opacity:0.6;}.cls-5{fill:#ffd961;}.cls-6{stroke:#4c4c4c;stroke-miterlimit:10;stroke-width:8px;}.cls-7{fill:#d8d8d8;}.cls-10,.cls-8,.cls-9{fill:#6793f4;}.cls-8{opacity:0.7;}.cls-9{opacity:0.5;}.cls-10{opacity:0.9;}</style></defs><g id="Layer_4" data-name="Layer 4"><g class="cls-1"><path class="cls-2" d="M143.37,104A34.14,34.14,0,1,1,177.5,69.87,34.17,34.17,0,0,1,143.37,104Z"/><path class="cls-3" d="M143.36,39.23a30.64,30.64,0,1,1-30.63,30.63,30.67,30.67,0,0,1,30.63-30.63m0-7A37.64,37.64,0,1,0,181,69.86a37.63,37.63,0,0,0-37.64-37.63Z"/></g><g class="cls-4"><circle class="cls-3" cx="143.36" cy="69.86" r="26.69"/></g><circle class="cls-5" cx="143.37" cy="69.87" r="16.06"/><path class="cls-2" d="M143.36,55.3A14.57,14.57,0,1,1,128.8,69.86,14.59,14.59,0,0,1,143.36,55.3m0-3a17.57,17.57,0,1,0,17.57,17.56A17.57,17.57,0,0,0,143.36,52.3Z"/><path class="cls-6" d="M133,145h2.25a31.19,31.19,0,0,0,31.1-31.1h0a31.21,31.21,0,0,0-23.18-30.06A27.9,27.9,0,0,0,108.38,67,36.45,36.45,0,0,0,43.6,82.82,31.18,31.18,0,0,0,13,113.9h0A31.18,31.18,0,0,0,44.1,145H72"/><path class="cls-7" d="M111.34,81.17a19.33,19.33,0,0,0-2.65-.19,19.88,19.88,0,0,0-7.47,1.45,24.09,24.09,0,0,0-21.49-13A23.85,23.85,0,0,0,55.68,93c0,.47,0,.93,0,1.39a20,20,0,0,0-5.93-.9,19.3,19.3,0,1,0,0,38.6l.51,0,.47,0H81.91Z"/><rect class="cls-8" x="77.08" y="137.7" width="55.3" height="8.59" rx="4.3" ry="4.3" transform="translate(279.98 121.58) rotate(119.77)"/><rect class="cls-9" x="73.58" y="123.99" width="44.46" height="8.59" rx="4.3" ry="4.3" transform="translate(254.74 108.81) rotate(119.77)"/><rect class="cls-10" x="102.43" y="130.99" width="44.46" height="8.59" rx="4.3" ry="4.3" transform="translate(303.99 94.25) rotate(119.77)"/></g></svg>