<svg id="Layer_1" data-name="Layer 1" xmlns="http://www.w3.org/2000/svg" viewBox="0 0 200 200"><defs><style>.cls-1,.cls-4{fill:#fff;}.cls-2{fill:#605a52;}.cls-3{fill:#b5a995;}.cls-4{stroke:#4c4c4c;stroke-miterlimit:10;stroke-width:8px;}.cls-5{fill:#d8d8d8;}.cls-6,.cls-7,.cls-8{fill:#6793f4;}.cls-6{opacity:0.7;}.cls-7{opacity:0.5;}.cls-8{opacity:0.9;}</style></defs><title>icon</title><path class="cls-1" d="M148.43,111.1A31.57,31.57,0,1,1,180,79.53,31.61,31.61,0,0,1,148.43,111.1Z"/><path class="cls-2" d="M148.43,52a27.57,27.57,0,1,1-27.58,27.57A27.6,27.6,0,0,1,148.43,52m0-8A35.57,35.57,0,1,0,184,79.53,35.58,35.58,0,0,0,148.43,44Z"/><circle class="cls-3" cx="148.43" cy="79.53" r="24.35"/><path class="cls-4" d="M135,156h2.25a31.19,31.19,0,0,0,31.1-31.1h0a31.21,31.21,0,0,0-23.18-30.06A27.9,27.9,0,0,0,110.38,78,36.45,36.45,0,0,0,45.6,93.82,31.18,31.18,0,0,0,15,124.9h0A31.18,31.18,0,0,0,46.1,156H74"/><path class="cls-5" d="M113.34,92.17a19.33,19.33,0,0,0-2.65-.19,19.88,19.88,0,0,0-7.47,1.45,24.09,24.09,0,0,0-21.49-13A23.85,23.85,0,0,0,57.68,104c0,.47,0,.93,0,1.39a20,20,0,0,0-5.93-.9,19.3,19.3,0,1,0,0,38.6l.51,0,.47,0H83.91Z"/><rect class="cls-6" x="79.08" y="148.7" width="55.3" height="8.59" rx="4.3" ry="4.3" transform="translate(292.52 136.31) rotate(119.77)"/><rect class="cls-7" x="75.58" y="134.99" width="44.46" height="8.59" rx="4.3" ry="4.3" transform="translate(267.28 123.54) rotate(119.77)"/><rect class="cls-8" x="104.43" y="141.99" width="44.46" height="8.59" rx="4.3" ry="4.3" transform="translate(316.53 108.97) rotate(119.77)"/></svg>