<svg xmlns="http://www.w3.org/2000/svg" viewBox="0 0 200 200"><defs><style>.cls-1,.cls-4{fill:#fff;}.cls-2{fill:#605a52;}.cls-3{fill:#b5a995;}.cls-4{stroke:#4c4c4c;stroke-miterlimit:10;stroke-width:8px;}.cls-5{fill:#d8d8d8;}.cls-6,.cls-7,.cls-8{fill:#6793f4;}.cls-6{opacity:0.7;}.cls-7{opacity:0.5;}.cls-8{opacity:0.9;}</style></defs><g id="Layer_4" data-name="Layer 4"><circle class="cls-1" cx="143.41" cy="74.55" r="40.55"/><path class="cls-2" d="M143.41,38a36.55,36.55,0,1,1-36.56,36.55A36.6,36.6,0,0,1,143.41,38m0-8A44.55,44.55,0,1,0,188,74.55,44.56,44.56,0,0,0,143.41,30Z"/><circle class="cls-3" cx="143.41" cy="74.55" r="30.5"/><path class="cls-4" d="M133,145h2.25a31.19,31.19,0,0,0,31.1-31.1h0a31.21,31.21,0,0,0-23.18-30.06A27.9,27.9,0,0,0,108.38,67,36.45,36.45,0,0,0,43.6,82.82,31.18,31.18,0,0,0,13,113.9h0A31.18,31.18,0,0,0,44.1,145H72"/><path class="cls-5" d="M111.34,81.17a19.33,19.33,0,0,0-2.65-.19,19.88,19.88,0,0,0-7.47,1.45,24.09,24.09,0,0,0-21.49-13A23.85,23.85,0,0,0,55.68,93c0,.47,0,.93,0,1.39a20,20,0,0,0-5.93-.9,19.3,19.3,0,1,0,0,38.6l.51,0,.47,0H81.91Z"/><rect class="cls-6" x="77.08" y="137.7" width="55.3" height="8.59" rx="4.3" ry="4.3" transform="translate(279.98 121.58) rotate(119.77)"/><rect class="cls-7" x="73.58" y="123.99" width="44.46" height="8.59" rx="4.3" ry="4.3" transform="translate(254.74 108.81) rotate(119.77)"/><rect class="cls-8" x="102.43" y="130.99" width="44.46" height="8.59" rx="4.3" ry="4.3" transform="translate(303.99 94.25) rotate(119.77)"/></g></svg>