<svg id="Layer_1" data-name="Layer 1" xmlns="http://www.w3.org/2000/svg" viewBox="0 0 200 200"><defs><style>.cls-1{fill:#fff;stroke:#4c4c4c;stroke-miterlimit:10;stroke-width:8px;}.cls-2{fill:#d8d8d8;}.cls-3{fill:#ffd31a;}</style></defs><title>icon</title><path class="cls-1" d="M145,154h3c17.1,0,28.35-14,28.35-31.1h0a31.21,31.21,0,0,0-23.18-30.06A27.9,27.9,0,0,0,118.38,76,36.45,36.45,0,0,0,53.6,91.82,31.18,31.18,0,0,0,23,122.9h0A31.18,31.18,0,0,0,54.1,154H87"/><path class="cls-2" d="M121.34,90.17a19.33,19.33,0,0,0-2.65-.19,19.88,19.88,0,0,0-7.47,1.45,24.09,24.09,0,0,0-21.49-13,23.85,23.85,0,0,0-24,23.64c0,.47,0,.93,0,1.39a20,20,0,0,0-5.93-.9,19.3,19.3,0,1,0,0,38.6l.51,0,.47,0H91.91Z"/><path class="cls-3" d="M134.82,133.32a5.17,5.17,0,0,0-5.88-2.95l-12.46,2.94L130.2,113a5.14,5.14,0,0,0-8.52-5.76L100.6,138.44a.16.16,0,0,1,0,.07,6.77,6.77,0,0,0-.43.8s0,0,0,.06a5.07,5.07,0,0,0-.28,3.16,5.16,5.16,0,0,0,6.19,3.82L120.19,143l-2.75,4.57h0l-7.2,12s0,.06,0,.06l-4.58,15.87c-.45,1.57.31,2,1.48.89L119,164.89s0,0,0,0L130.39,146v0l4.44-7.39A5.12,5.12,0,0,0,134.82,133.32Z"/><rect class="cls-3" x="91.61" y="110.12" width="27.18" height="10.58" rx="3.76" ry="3.76" transform="translate(258.92 87.86) rotate(122.19)"/></svg>