<svg xmlns="http://www.w3.org/2000/svg" viewBox="0 0 200 200"><defs><style>.cls-1,.cls-3{fill:#fff;}.cls-1{stroke:#4c4c4c;stroke-width:8px;}.cls-1,.cls-5,.cls-6,.cls-7{stroke-miterlimit:10;}.cls-2{fill:#4c4c4c;}.cls-4{opacity:0.3;}.cls-5,.cls-6,.cls-7{fill:#6a6a89;stroke:#6a6a89;}.cls-6{stroke-width:2px;opacity:0.9;}.cls-7{stroke-width:1.5px;opacity:0.6;}</style></defs><title>15d</title><g id="Layer_5" data-name="Layer 5"><path class="cls-1" d="M146,129h2.25a31.19,31.19,0,0,0,31.1-31.1h0a31.21,31.21,0,0,0-23.18-30.06A27.9,27.9,0,0,0,121.38,51,36.45,36.45,0,0,0,56.6,66.82,31.18,31.18,0,0,0,26,97.9h0A31.18,31.18,0,0,0,57.1,129H85"/><polygon class="cls-2" points="85 133 80 133 84 125 90 125 85 133"/><polygon class="cls-2" points="146 125 149 125 146 133 141 133 146 125"/><circle class="cls-3" cx="137.06" cy="113.37" r="3.45"/><g class="cls-4"><path class="cls-5" d="M92.8,109.49l7.22-1.38-4.13,6.08a1.12,1.12,0,0,0,.29,1.54h0a1.11,1.11,0,0,0,1.54-.29l4.13-6.08,1.38,7.22a1.11,1.11,0,0,0,2.18-.42L104,108.94l6.08,4.13a1.11,1.11,0,0,0,1.54-.3,1.1,1.1,0,0,0-.3-1.53l-6.08-4.13,7.22-1.38a1.11,1.11,0,0,0-.42-2.18l-7.21,1.38L109,98.85a1.11,1.11,0,1,0-1.83-1.24L103,103.69l-1.38-7.22a1.11,1.11,0,0,0-2.18.41l1.39,7.22L94.76,100a1.11,1.11,0,0,0-1.54.29h0a1.12,1.12,0,0,0,.3,1.54l6.08,4.13-7.22,1.38a1.11,1.11,0,1,0,.42,2.17Z"/></g><path class="cls-6" d="M118.6,127.71l-6,7.55-1.08-9.6a1.46,1.46,0,0,0-1.61-1.28h0a1.45,1.45,0,0,0-1.28,1.61l1.07,9.59-7.54-6a1.46,1.46,0,0,0-1.82,2.28l7.55,6-9.6,1.08a1.45,1.45,0,1,0,.33,2.89l9.59-1.08-6,7.55a1.46,1.46,0,0,0,2.28,1.81l6-7.54,1.08,9.59a1.45,1.45,0,1,0,2.89-.32l-1.08-9.6,7.55,6a1.45,1.45,0,0,0,1.81-2.27l-7.54-6,9.59-1.08a1.47,1.47,0,0,0,1.29-1.61h0a1.46,1.46,0,0,0-1.61-1.28l-9.6,1.07,6-7.54a1.45,1.45,0,1,0-2.27-1.82Z"/><path class="cls-7" d="M141.47,99.16l-5.73,7.18-1-9.13A1.4,1.4,0,0,0,133.18,96h0A1.4,1.4,0,0,0,132,97.51l1,9.14-7.19-5.73a1.39,1.39,0,0,0-2,.22,1.4,1.4,0,0,0,.22,2l7.19,5.73-9.14,1a1.38,1.38,0,1,0,.31,2.75l9.14-1-5.73,7.19A1.38,1.38,0,0,0,128,120.5l5.74-7.19,1,9.14a1.38,1.38,0,0,0,2.75-.31l-1-9.14,7.19,5.73a1.38,1.38,0,1,0,1.73-2.16l-7.19-5.74,9.14-1a1.39,1.39,0,0,0,1.23-1.53h0a1.39,1.39,0,0,0-1.54-1.22l-9.14,1,5.74-7.18a1.39,1.39,0,1,0-2.17-1.73Z"/></g></svg>