<svg id="Layer_1" data-name="Layer 1" xmlns="http://www.w3.org/2000/svg" viewBox="0 0 200 200"><defs><style>.cls-1,.cls-3{fill:#fff;}.cls-1{stroke:#4c4c4c;stroke-width:8px;}.cls-1,.cls-5,.cls-6,.cls-7{stroke-miterlimit:10;}.cls-2{fill:#4c4c4c;}.cls-4{opacity:0.3;}.cls-5,.cls-6,.cls-7{fill:#6a6a89;stroke:#6a6a89;}.cls-6{stroke-width:2px;opacity:0.9;}.cls-7{stroke-width:1.5px;opacity:0.6;}</style></defs><title>icon</title><path class="cls-1" d="M143,154h2.25a31.19,31.19,0,0,0,31.1-31.1h0a31.21,31.21,0,0,0-23.18-30.06A27.9,27.9,0,0,0,118.38,76,36.45,36.45,0,0,0,53.6,91.82,31.18,31.18,0,0,0,23,122.9h0A31.18,31.18,0,0,0,54.1,154H82"/><polygon class="cls-2" points="82 158 77 158 81 150 87 150 82 158"/><polygon class="cls-2" points="143 150 146 150 143 158 138 158 143 150"/><circle class="cls-3" cx="134.06" cy="138.37" r="3.45"/><g class="cls-4"><path class="cls-5" d="M89.8,134.49,97,133.11l-4.13,6.08a1.12,1.12,0,0,0,.29,1.54h0a1.11,1.11,0,0,0,1.54-.29l4.13-6.08,1.38,7.22a1.11,1.11,0,0,0,2.18-.42L101,133.94l6.08,4.13a1.11,1.11,0,0,0,1.54-.3,1.1,1.1,0,0,0-.3-1.53l-6.08-4.13,7.22-1.38a1.11,1.11,0,0,0-.42-2.18l-7.21,1.38,4.12-6.08a1.11,1.11,0,1,0-1.83-1.24L100,128.69l-1.38-7.22a1.11,1.11,0,0,0-2.18.41l1.39,7.22L91.76,125a1.11,1.11,0,0,0-1.54.29h0a1.12,1.12,0,0,0,.3,1.54l6.08,4.13-7.22,1.38a1.11,1.11,0,1,0,.42,2.17Z"/></g><path class="cls-6" d="M115.6,152.71l-6,7.55-1.08-9.6a1.46,1.46,0,0,0-1.61-1.28h0a1.45,1.45,0,0,0-1.28,1.61l1.07,9.59-7.54-6a1.46,1.46,0,0,0-1.82,2.28l7.55,6-9.6,1.08a1.45,1.45,0,0,0,.33,2.89l9.59-1.08-6,7.55a1.46,1.46,0,0,0,2.28,1.81l6-7.54,1.08,9.59a1.45,1.45,0,1,0,2.89-.32l-1.08-9.6,7.55,6a1.45,1.45,0,0,0,1.81-2.27l-7.54-6,9.59-1.08a1.47,1.47,0,0,0,1.29-1.61h0a1.46,1.46,0,0,0-1.61-1.28l-9.6,1.07,6-7.54a1.45,1.45,0,1,0-2.27-1.82Z"/><path class="cls-7" d="M138.47,124.16l-5.73,7.18-1-9.13a1.4,1.4,0,0,0-1.53-1.23h0a1.4,1.4,0,0,0-1.23,1.53l1,9.14-7.19-5.73a1.39,1.39,0,0,0-2,.22,1.4,1.4,0,0,0,.22,2l7.19,5.73-9.14,1a1.38,1.38,0,1,0,.31,2.75l9.14-1-5.73,7.19A1.38,1.38,0,0,0,125,145.5l5.74-7.19,1,9.14a1.38,1.38,0,0,0,2.75-.31l-1-9.14,7.19,5.73a1.38,1.38,0,1,0,1.73-2.16l-7.19-5.74,9.14-1a1.39,1.39,0,0,0,1.23-1.53h0a1.39,1.39,0,0,0-1.54-1.22l-9.14,1,5.74-7.18a1.39,1.39,0,1,0-2.17-1.73Z"/></svg>