<svg id="Layer_1" data-name="Layer 1" xmlns="http://www.w3.org/2000/svg" viewBox="0 0 10 10"><defs><style>.cls-1{fill:#fff;}</style></defs><title>xweather-chevron-back</title><path class="cls-1" d="M6.74,8.8a.32.32,0,0,1-.23-.09L3,5.23a.33.33,0,0,1,.46-.46L7,8.25a.34.34,0,0,1,0,.46A.32.32,0,0,1,6.74,8.8Z"/><path class="cls-1" d="M3.26,4.18a.82.82,0,0,0-.58,1.4L6.16,9.06A.82.82,0,0,0,7.32,7.9L3.84,4.42a.82.82,0,0,0-.58-.24Z"/><path class="cls-1" d="M3.26,5.32A.33.33,0,0,1,3,4.77L6.51,1.29a.32.32,0,0,1,.23-.09h0A.32.32,0,0,1,7,1.29a.34.34,0,0,1,0,.46L3.49,5.23A.32.32,0,0,1,3.26,5.32Z"/><path class="cls-1" d="M6.74.7a.82.82,0,0,0-.58.24L2.68,4.42A.82.82,0,0,0,3.84,5.58L7.32,2.1A.82.82,0,0,0,6.74.7Z"/></svg>