<svg id="Layer_1" data-name="Layer 1" xmlns="http://www.w3.org/2000/svg" viewBox="0 0 200 200"><defs><style>.cls-1{opacity:0.3;}.cls-2{fill:#edb23e;}.cls-3{opacity:0.6;}.cls-4{fill:#fff;}</style></defs><title>full-sun-icon</title><g class="cls-1"><path class="cls-2" d="M99.55,45.73A49.33,49.33,0,1,1,50.23,95.05,49.38,49.38,0,0,1,99.55,45.73m0-8a57.33,57.33,0,1,0,57.33,57.32A57.32,57.32,0,0,0,99.55,37.73Z"/></g><g class="cls-3"><circle class="cls-2" cx="99.55" cy="95.05" r="40.65"/></g><circle class="cls-2" cx="99.55" cy="95.05" r="23.25"/><path class="cls-4" d="M99.55,75.3A19.75,19.75,0,1,1,79.8,95.05,19.77,19.77,0,0,1,99.55,75.3m0-7A26.75,26.75,0,1,0,126.3,95.05,26.75,26.75,0,0,0,99.55,68.3Z"/></svg>