<svg id="Layer_1" data-name="Layer 1" xmlns="http://www.w3.org/2000/svg" viewBox="0 0 50 50"><defs><style>.cls-1{fill:#5a5e90;}.cls-2{fill:none;stroke:#5a5e90;stroke-miterlimit:10;stroke-width:2px;}</style></defs><title>xweather-geowidget-global</title><path class="cls-1" d="M34.28,38.5a3.76,3.76,0,0,0,3.5-3.06l.44-.56V33.44s1.06-.94,1.18-1.56c0,0,.75,0,0-2.44,0,0-.06-.81,1.19-2.25L42,24H40.4l-2.68-5.31.4-.5,2.41,4.62s3-.12,3.12-1.87V19.56l-1.43-.06-1.13-1.31.31-.69A13.71,13.71,0,0,0,44.34,19L44,15.63S38.78,8.25,32.9,6.81l-.75,1.32-.68.43,1.62,1.32.88-1,.81.37-.38,1-2.06.25s-2.5.63-2.44,1.19a11.13,11.13,0,0,0,.44,1.62s-.12.94-1.62.44c0,0-.69,1.44-.32,1.63,0,0,1.44.56,1.75-.19a4.45,4.45,0,0,1,1.25-1.44l1.13-.12,2.19,1.12a14,14,0,0,1,2.37.94c.06.19,1.19,1,.13,1.25s-2.63.56-2.63.56-1.75-.25-2.06-.94a5.13,5.13,0,0,1-.38-1.06l-3.86.88-1.14,2.37-1.06,3.13L26.53,24s.75,1.13,1.06,1.25,3.25-.5,4,.44a5.94,5.94,0,0,1,.69,2,5.53,5.53,0,0,1,.87,3.37l-.56,2Z"/><path class="cls-1" d="M15.45,43.5v-3s.19.56,1-.75a29.84,29.84,0,0,0,1.81-4.06A3.37,3.37,0,0,0,20,33.13c.44-2.07.87-3.82.87-3.82a5.75,5.75,0,0,0-2.68-1.43H16.82s.82-.63-.37-1.94l-2.06-1.25-1.88-.44-.81-.75-1.13,3.13-.62,2,.37,1.68,2,2.25a3,3,0,0,1,1,1.75v4.88a7.62,7.62,0,0,0,.38,2.12A5.18,5.18,0,0,1,14.07,43Z"/><path class="cls-1" d="M11.24,24.29l-.71-1.08a6.11,6.11,0,0,1,0-1.25H9.66l.21-1.71H9.41s-.38.79-1,.58c0,0-1.5-.62-.38-2.54,0,0,.75-1,1.42-.91l.62.16.88-.37.71,1.16.62-1.5.29-.66a15.9,15.9,0,0,0,1.59-2l.7-.42.59-.41,1-1.05.71-.5L16.87,11l1.79-.17a.88.88,0,0,0,.71-.75,2.13,2.13,0,0,1-.59-.95A9.16,9.16,0,0,1,18.62,8L18,8.58,17.32,8V7.33L14.74,8S8.66,10.33,5.66,18.88l.91,3,2,.54Z"/><circle class="cls-2" cx="25" cy="25" r="20.75"/></svg>