<svg xmlns="http://www.w3.org/2000/svg" viewBox="0 0 43.75 43.75"><defs><style>.cls-1{fill:#fff;}</style></defs><title>xweather-github-icon</title><g id="Layer_2" data-name="Layer 2"><path class="cls-1" d="M25,3.13A22,22,0,0,0,3.13,25c0,10.25,7.19,19.57,16.74,21.87V39.64A5.25,5.25,0,0,1,14,37c-.5-.84-1.38-1.75-2.3-1.68l-.22-2.55c2-.17,3.7,1.21,4.72,2.92a2.89,2.89,0,0,0,1.65,1.41A3.42,3.42,0,0,0,20,36.92a6,6,0,0,1,1.51-3.08h0c-5.7-.85-8-3.87-8.87-6.26A10,10,0,0,1,14.17,18a.33.33,0,0,0,.08-.26,8.3,8.3,0,0,1,.26-5.6c1.11.33,1.3-.34,4.85,1.82l.62.37c.25.16.17.07.43.05A18.7,18.7,0,0,1,25,13.68a18.59,18.59,0,0,1,4.65.67l.2,0s.06,0,.18-.09c4.44-2.69,4.28-1.81,5.47-2.2a8.56,8.56,0,0,1,.25,5.61c-.13.4,3.85,4,1.64,9.89-.9,2.39-3.17,5.41-8.87,6.26h0c.73,1.11,1.61,1.7,1.61,4v9C39.68,44.57,46.87,35.25,46.87,25A22,22,0,0,0,25,3.13Z" transform="translate(-3.13 -3.13)"/></g></svg>