<svg xmlns="http://www.w3.org/2000/svg" viewBox="0 0 43.75 43.75"><defs><style>.cls-1{fill:#fff;}</style></defs><title>xweather-information-icon</title><g id="Layer_2" data-name="Layer 2"><path class="cls-1" d="M25,6.13A18.88,18.88,0,1,1,6.13,25,18.89,18.89,0,0,1,25,6.13m0-3A21.88,21.88,0,1,0,46.88,25,21.87,21.87,0,0,0,25,3.13Z" transform="translate(-3.13 -3.13)"/><path class="cls-1" d="M27.32,32.06h-5c0-.72,0-1.15,0-1.31a8.71,8.71,0,0,1,.8-4,12,12,0,0,1,3.19-3.5,25.18,25.18,0,0,0,2.87-2.55,3.43,3.43,0,0,0,.72-2.11,3.55,3.55,0,0,0-1.28-2.73,5,5,0,0,0-3.44-1.14,5.16,5.16,0,0,0-3.48,1.19,6.29,6.29,0,0,0-1.93,3.62l-5-.63a8.3,8.3,0,0,1,3-5.91A10.48,10.48,0,0,1,25,10.58,10.93,10.93,0,0,1,32.46,13a7.5,7.5,0,0,1,2.78,5.74,6.32,6.32,0,0,1-1,3.43,22.77,22.77,0,0,1-4.37,4.4,8.32,8.32,0,0,0-2.15,2.31A7.71,7.71,0,0,0,27.32,32.06Zm-5,7.36V34h5.47v5.47Z" transform="translate(-3.13 -3.13)"/></g></svg>