<svg id="Layer_1" data-name="Layer 1" xmlns="http://www.w3.org/2000/svg" viewBox="0 0 100 100"><defs><style>.cls-1{fill:#fff;}</style></defs><title>xweather-search-bar-icon</title><path class="cls-1" d="M48,26A21,21,0,1,1,27,47,21,21,0,0,1,48,26m0-9A30,30,0,1,0,78,47,30,30,0,0,0,48,17Z"/><rect class="cls-1" x="71.61" y="64.4" width="2" height="15.42" transform="translate(-29.72 72.47) rotate(-45)"/><path class="cls-1" d="M67.87,60.46a2.11,2.11,0,0,0-1.49.62l-4.8,4.8a2.1,2.1,0,0,0,0,3l14.3,14.3a2.07,2.07,0,0,0,1.48.62,2.11,2.11,0,0,0,1.49-.62l4.8-4.8a2.1,2.1,0,0,0,0-3l-14.3-14.3a2.08,2.08,0,0,0-1.48-.62Z"/></svg>